<svg width="49" height="49" viewBox="0 0 49 49" fill="none" xmlns="http://www.w3.org/2000/svg">
<g filter="url(#filter0_d_1059_1959)">
<rect x="2" y="2" width="45" height="45" rx="6.24161" fill="#FDFDFD"/>
<rect x="2.31208" y="2.31208" width="44.3758" height="44.3758" rx="5.92953" stroke="#C2C2C2" stroke-width="0.624161"/>
</g>
<path d="M14.9729 17.1955L14.9733 17.1951L14.9733 17.1951C15.5586 16.6742 16.2431 16.2768 16.9856 16.0268C17.7279 15.7769 18.513 15.6794 19.2938 15.7402C20.8768 15.8403 22.3681 16.5172 23.4855 17.6429C23.4856 17.643 23.4856 17.643 23.4856 17.643L24.4743 18.6317L25.6844 17.4216C26.2638 16.8419 26.9552 16.3864 27.7166 16.0829C28.4779 15.7794 29.2932 15.6343 30.1125 15.6565C30.9318 15.6787 31.738 15.8677 32.4818 16.2119C33.2256 16.5561 33.8915 17.0483 34.4387 17.6585L34.439 17.6589C34.9599 18.2442 35.3573 18.9286 35.6073 19.6712C35.8572 20.4135 35.9547 21.1986 35.8939 21.9795C35.7938 23.5624 35.1168 25.0537 33.9911 26.1712L25.4644 34.6979L25.4636 34.6987C25.1999 34.958 24.8454 35.104 24.4756 35.1058C24.4754 35.1058 24.4751 35.1058 24.4749 35.1058L24.4743 34.9711C24.3079 34.9739 24.1427 34.9426 23.9888 34.8793C23.8349 34.8159 23.6956 34.7218 23.5795 34.6026L14.9729 17.1955ZM14.9729 17.1955C14.3628 17.7427 13.8705 18.4085 13.5263 19.1523C13.1821 19.8962 12.9931 20.7023 12.971 21.5216C12.9488 22.3409 13.0939 23.1562 13.3974 23.9175C13.7008 24.6789 14.1564 25.3704 14.7361 25.9498L23.483 34.6967C23.4832 34.6969 23.4834 34.6971 23.4835 34.6972L14.9729 17.1955ZM18.8931 16.841L18.8944 16.841C20.3202 16.8461 21.6863 17.4147 22.6947 18.4228L24.0836 19.8117C24.1342 19.8637 24.1948 19.9051 24.2617 19.9334C24.329 19.9619 24.4013 19.9766 24.4743 19.9766C24.5473 19.9766 24.6196 19.9619 24.6869 19.9334C24.7537 19.9051 24.8142 19.8638 24.8648 19.8118L26.4747 18.2125L26.4752 18.212C26.9463 17.7387 27.5091 17.3665 28.129 17.1182C28.7489 16.8699 29.413 16.7508 30.0805 16.768C30.7481 16.7853 31.4051 16.9386 32.0114 17.2186C32.6177 17.4986 33.1604 17.8994 33.6064 18.3964L33.6065 18.3965C35.3225 20.3065 35.1555 23.436 33.2114 25.3802L24.6747 33.9169C24.6746 33.917 24.6745 33.9171 24.6743 33.9172C24.6208 33.9695 24.5491 33.9987 24.4743 33.9987C24.3995 33.9987 24.3278 33.9695 24.2743 33.9173C24.2741 33.9171 24.274 33.917 24.2738 33.9169L15.5267 25.1592L15.5264 25.1589C15.0531 24.6878 14.6809 24.1251 14.4327 23.5051C14.1844 22.8852 14.0652 22.2211 14.0825 21.5536C14.0998 20.886 14.2531 20.229 14.5331 19.6227C14.813 19.0165 15.2137 18.4739 15.7106 18.0279C16.5863 17.2492 17.7214 16.8258 18.8931 16.841Z" fill="white" stroke="black" stroke-width="0.269498"/>
<defs>
<filter id="filter0_d_1059_1959" x="0.127517" y="0.127517" width="48.745" height="48.745" filterUnits="userSpaceOnUse" color-interpolation-filters="sRGB">
<feFlood flood-opacity="0" result="BackgroundImageFix"/>
<feColorMatrix in="SourceAlpha" type="matrix" values="0 0 0 0 0 0 0 0 0 0 0 0 0 0 0 0 0 0 127 0" result="hardAlpha"/>
<feOffset/>
<feGaussianBlur stdDeviation="0.936242"/>
<feComposite in2="hardAlpha" operator="out"/>
<feColorMatrix type="matrix" values="0 0 0 0 0.7625 0 0 0 0 0.7625 0 0 0 0 0.7625 0 0 0 1 0"/>
<feBlend mode="normal" in2="BackgroundImageFix" result="effect1_dropShadow_1059_1959"/>
<feBlend mode="normal" in="SourceGraphic" in2="effect1_dropShadow_1059_1959" result="shape"/>
</filter>
</defs>
</svg>
